<mxfile host="app.diagrams.net" modified="2023-11-02T14:53:10.138Z" agent="Mozilla/5.0 (Windows NT 10.0; Win64; x64) AppleWebKit/537.36 (KHTML, like Gecko) Chrome/116.0.0.0 Safari/537.36 OPR/102.0.0.0" etag="2kJDBxaqg_KSjRr48zFV" version="22.0.8" type="github">
  <diagram id="C5RBs43oDa-KdzZeNtuy" name="Page-1">
    <mxGraphModel dx="796" dy="477" grid="1" gridSize="10" guides="1" tooltips="1" connect="1" arrows="1" fold="1" page="1" pageScale="1" pageWidth="827" pageHeight="1169" math="0" shadow="0">
      <root>
        <mxCell id="WIyWlLk6GJQsqaUBKTNV-0" />
        <mxCell id="WIyWlLk6GJQsqaUBKTNV-1" parent="WIyWlLk6GJQsqaUBKTNV-0" />
        <mxCell id="K94QrG47wtowj-4olxOj-56" style="edgeStyle=orthogonalEdgeStyle;rounded=0;orthogonalLoop=1;jettySize=auto;html=1;entryX=0.5;entryY=0;entryDx=0;entryDy=0;" edge="1" parent="WIyWlLk6GJQsqaUBKTNV-1" source="K94QrG47wtowj-4olxOj-14" target="K94QrG47wtowj-4olxOj-17">
          <mxGeometry relative="1" as="geometry" />
        </mxCell>
        <mxCell id="K94QrG47wtowj-4olxOj-14" value="Input year (y)" style="rounded=1;whiteSpace=wrap;html=1;fontSize=12;glass=0;strokeWidth=1;shadow=0;" vertex="1" parent="WIyWlLk6GJQsqaUBKTNV-1">
          <mxGeometry x="150" y="40" width="150" height="80" as="geometry" />
        </mxCell>
        <mxCell id="K94QrG47wtowj-4olxOj-16" value="no" style="edgeStyle=orthogonalEdgeStyle;rounded=0;html=1;jettySize=auto;orthogonalLoop=1;fontSize=11;endArrow=block;endFill=0;endSize=8;strokeWidth=1;shadow=0;labelBackgroundColor=none;entryX=0;entryY=0.5;entryDx=0;entryDy=0;" edge="1" parent="WIyWlLk6GJQsqaUBKTNV-1" source="K94QrG47wtowj-4olxOj-17" target="K94QrG47wtowj-4olxOj-36">
          <mxGeometry x="-0.0069" y="10" relative="1" as="geometry">
            <mxPoint as="offset" />
            <mxPoint x="410" y="220" as="targetPoint" />
            <Array as="points">
              <mxPoint x="410" y="220" />
              <mxPoint x="410" y="205" />
            </Array>
          </mxGeometry>
        </mxCell>
        <mxCell id="K94QrG47wtowj-4olxOj-45" value="" style="edgeStyle=orthogonalEdgeStyle;rounded=0;orthogonalLoop=1;jettySize=auto;html=1;" edge="1" parent="WIyWlLk6GJQsqaUBKTNV-1" source="K94QrG47wtowj-4olxOj-17" target="K94QrG47wtowj-4olxOj-43">
          <mxGeometry relative="1" as="geometry" />
        </mxCell>
        <mxCell id="K94QrG47wtowj-4olxOj-48" value="yes" style="edgeLabel;html=1;align=center;verticalAlign=middle;resizable=0;points=[];" vertex="1" connectable="0" parent="K94QrG47wtowj-4olxOj-45">
          <mxGeometry x="-0.0163" y="1" relative="1" as="geometry">
            <mxPoint as="offset" />
          </mxGeometry>
        </mxCell>
        <mxCell id="K94QrG47wtowj-4olxOj-17" value="y | 4 ?" style="rhombus;whiteSpace=wrap;html=1;shadow=0;fontFamily=Helvetica;fontSize=12;align=center;strokeWidth=1;spacing=6;spacingTop=-4;" vertex="1" parent="WIyWlLk6GJQsqaUBKTNV-1">
          <mxGeometry x="190" y="180" width="100" height="80" as="geometry" />
        </mxCell>
        <mxCell id="K94QrG47wtowj-4olxOj-28" style="edgeStyle=orthogonalEdgeStyle;rounded=0;orthogonalLoop=1;jettySize=auto;html=1;exitX=0.5;exitY=1;exitDx=0;exitDy=0;entryX=0.5;entryY=0;entryDx=0;entryDy=0;" edge="1" parent="WIyWlLk6GJQsqaUBKTNV-1" source="K94QrG47wtowj-4olxOj-22" target="K94QrG47wtowj-4olxOj-27">
          <mxGeometry relative="1" as="geometry" />
        </mxCell>
        <mxCell id="K94QrG47wtowj-4olxOj-22" value="Print &quot;it is a leap year&quot;" style="rounded=1;whiteSpace=wrap;html=1;fontSize=12;glass=0;strokeWidth=1;shadow=0;" vertex="1" parent="WIyWlLk6GJQsqaUBKTNV-1">
          <mxGeometry x="220" y="585" width="120" height="40" as="geometry" />
        </mxCell>
        <mxCell id="K94QrG47wtowj-4olxOj-25" style="edgeStyle=orthogonalEdgeStyle;rounded=0;orthogonalLoop=1;jettySize=auto;html=1;exitX=0.5;exitY=1;exitDx=0;exitDy=0;entryX=0.5;entryY=0;entryDx=0;entryDy=0;" edge="1" parent="WIyWlLk6GJQsqaUBKTNV-1" source="K94QrG47wtowj-4olxOj-24" target="K94QrG47wtowj-4olxOj-14">
          <mxGeometry relative="1" as="geometry" />
        </mxCell>
        <mxCell id="K94QrG47wtowj-4olxOj-24" value="Start" style="rounded=1;whiteSpace=wrap;html=1;" vertex="1" parent="WIyWlLk6GJQsqaUBKTNV-1">
          <mxGeometry x="390" y="30" width="120" height="60" as="geometry" />
        </mxCell>
        <mxCell id="K94QrG47wtowj-4olxOj-27" value="End" style="rounded=1;whiteSpace=wrap;html=1;" vertex="1" parent="WIyWlLk6GJQsqaUBKTNV-1">
          <mxGeometry x="450" y="585" width="120" height="60" as="geometry" />
        </mxCell>
        <mxCell id="K94QrG47wtowj-4olxOj-37" style="edgeStyle=orthogonalEdgeStyle;rounded=0;orthogonalLoop=1;jettySize=auto;html=1;entryX=0.5;entryY=0;entryDx=0;entryDy=0;" edge="1" parent="WIyWlLk6GJQsqaUBKTNV-1" source="K94QrG47wtowj-4olxOj-36" target="K94QrG47wtowj-4olxOj-27">
          <mxGeometry relative="1" as="geometry" />
        </mxCell>
        <mxCell id="K94QrG47wtowj-4olxOj-36" value="print &quot;it is a common year&quot;" style="rounded=1;whiteSpace=wrap;html=1;absoluteArcSize=1;arcSize=14;strokeWidth=2;" vertex="1" parent="WIyWlLk6GJQsqaUBKTNV-1">
          <mxGeometry x="500" y="180" width="120" height="50" as="geometry" />
        </mxCell>
        <mxCell id="K94QrG47wtowj-4olxOj-46" value="" style="edgeStyle=orthogonalEdgeStyle;rounded=0;orthogonalLoop=1;jettySize=auto;html=1;" edge="1" parent="WIyWlLk6GJQsqaUBKTNV-1" source="K94QrG47wtowj-4olxOj-43" target="K94QrG47wtowj-4olxOj-22">
          <mxGeometry relative="1" as="geometry" />
        </mxCell>
        <mxCell id="K94QrG47wtowj-4olxOj-47" value="no" style="edgeLabel;html=1;align=center;verticalAlign=middle;resizable=0;points=[];" vertex="1" connectable="0" parent="K94QrG47wtowj-4olxOj-46">
          <mxGeometry x="-0.381" y="-2" relative="1" as="geometry">
            <mxPoint as="offset" />
          </mxGeometry>
        </mxCell>
        <mxCell id="K94QrG47wtowj-4olxOj-50" value="" style="edgeStyle=orthogonalEdgeStyle;rounded=0;orthogonalLoop=1;jettySize=auto;html=1;" edge="1" parent="WIyWlLk6GJQsqaUBKTNV-1" source="K94QrG47wtowj-4olxOj-43" target="K94QrG47wtowj-4olxOj-49">
          <mxGeometry relative="1" as="geometry" />
        </mxCell>
        <mxCell id="K94QrG47wtowj-4olxOj-55" value="yes" style="edgeLabel;html=1;align=center;verticalAlign=middle;resizable=0;points=[];" vertex="1" connectable="0" parent="K94QrG47wtowj-4olxOj-50">
          <mxGeometry x="-0.2034" relative="1" as="geometry">
            <mxPoint as="offset" />
          </mxGeometry>
        </mxCell>
        <mxCell id="K94QrG47wtowj-4olxOj-43" value="y | 100 ?" style="strokeWidth=2;html=1;shape=mxgraph.flowchart.decision;whiteSpace=wrap;" vertex="1" parent="WIyWlLk6GJQsqaUBKTNV-1">
          <mxGeometry x="80" y="320" width="150" height="100" as="geometry" />
        </mxCell>
        <mxCell id="K94QrG47wtowj-4olxOj-51" style="edgeStyle=orthogonalEdgeStyle;rounded=0;orthogonalLoop=1;jettySize=auto;html=1;entryX=0;entryY=0.5;entryDx=0;entryDy=0;" edge="1" parent="WIyWlLk6GJQsqaUBKTNV-1" source="K94QrG47wtowj-4olxOj-49" target="K94QrG47wtowj-4olxOj-36">
          <mxGeometry relative="1" as="geometry" />
        </mxCell>
        <mxCell id="K94QrG47wtowj-4olxOj-52" value="no" style="edgeLabel;html=1;align=center;verticalAlign=middle;resizable=0;points=[];" vertex="1" connectable="0" parent="K94QrG47wtowj-4olxOj-51">
          <mxGeometry x="-0.1514" y="-1" relative="1" as="geometry">
            <mxPoint as="offset" />
          </mxGeometry>
        </mxCell>
        <mxCell id="K94QrG47wtowj-4olxOj-53" style="edgeStyle=orthogonalEdgeStyle;rounded=0;orthogonalLoop=1;jettySize=auto;html=1;exitX=0.5;exitY=1;exitDx=0;exitDy=0;exitPerimeter=0;entryX=0.5;entryY=0;entryDx=0;entryDy=0;" edge="1" parent="WIyWlLk6GJQsqaUBKTNV-1" source="K94QrG47wtowj-4olxOj-49" target="K94QrG47wtowj-4olxOj-22">
          <mxGeometry relative="1" as="geometry">
            <mxPoint x="330" y="560" as="targetPoint" />
            <mxPoint x="410" y="490" as="sourcePoint" />
            <Array as="points">
              <mxPoint x="420" y="490" />
              <mxPoint x="410" y="490" />
              <mxPoint x="410" y="540" />
              <mxPoint x="280" y="540" />
            </Array>
          </mxGeometry>
        </mxCell>
        <mxCell id="K94QrG47wtowj-4olxOj-54" value="yes&lt;br&gt;" style="edgeLabel;html=1;align=center;verticalAlign=middle;resizable=0;points=[];" vertex="1" connectable="0" parent="K94QrG47wtowj-4olxOj-53">
          <mxGeometry x="-0.7101" relative="1" as="geometry">
            <mxPoint as="offset" />
          </mxGeometry>
        </mxCell>
        <mxCell id="K94QrG47wtowj-4olxOj-49" value="y | 400" style="strokeWidth=2;html=1;shape=mxgraph.flowchart.decision;whiteSpace=wrap;" vertex="1" parent="WIyWlLk6GJQsqaUBKTNV-1">
          <mxGeometry x="370" y="350" width="100" height="100" as="geometry" />
        </mxCell>
      </root>
    </mxGraphModel>
  </diagram>
</mxfile>
